<svg width="16" height="16" viewBox="0 0 16 16" fill="none" xmlns="http://www.w3.org/2000/svg">
<g clip-path="url(#clip0_286_119)">
<path d="M8.00004 14.6667C11.6819 14.6667 14.6667 11.6819 14.6667 8C14.6667 4.3181 11.6819 1.33333 8.00004 1.33333C4.31814 1.33333 1.33337 4.3181 1.33337 8C1.33337 11.6819 4.31814 14.6667 8.00004 14.6667Z" stroke="#64748B" stroke-linecap="round" stroke-linejoin="round"/>
<path d="M8 8.66667C9.10457 8.66667 10 7.77124 10 6.66667C10 5.5621 9.10457 4.66667 8 4.66667C6.89543 4.66667 6 5.5621 6 6.66667C6 7.77124 6.89543 8.66667 8 8.66667Z" stroke="#64748B" stroke-linecap="round" stroke-linejoin="round"/>
<path d="M4.66663 13.7747V12.6667C4.66663 12.313 4.8071 11.9739 5.05715 11.7239C5.3072 11.4738 5.64634 11.3333 5.99996 11.3333H9.99996C10.3536 11.3333 10.6927 11.4738 10.9428 11.7239C11.1928 11.9739 11.3333 12.313 11.3333 12.6667V13.7747" stroke="#64748B" stroke-linecap="round" stroke-linejoin="round"/>
</g>
<defs>
<clipPath id="clip0_286_119">
<rect width="16" height="16" fill="white"/>
</clipPath>
</defs>
</svg>
